<?xml version="1.0" encoding="utf-8"?>
<svg version="1.1" xmlns="http://www.w3.org/2000/svg" xmlns:xlink="http://www.w3.org/1999/xlink" x="0px" y="0px"
	 viewBox="0 0 48 39.9" style="enable-background:new 0 0 48 39.9;" xml:space="preserve">
<g>
	<path class="st0" d="M40.8,34.6h-3.7L34,39.1c-0.3,0.4-0.8,0.7-1.4,0.7c-0.6,0-1.1-0.3-1.4-0.8l-3-4.5h-12c-4,0-7.2-3.3-7.2-7.4
		v-2.6H7.2c-4,0-7.2-3.3-7.2-7.4V7.4C0,3.3,3.2,0,7.2,0h20.1c3.3,0,6,2.3,6.9,5.4h6.7c4,0,7.2,3.3,7.2,7.4v14.3
		C48,31.3,44.8,34.6,40.8,34.6z M27.3,2.6H7.2c-2.6,0-4.6,2.1-4.6,4.8v9.8c0,2.7,2.1,4.8,4.6,4.8h1.9v-9.2c0-4.1,3.2-7.4,7.2-7.4
		h15.3C30.8,3.8,29.1,2.6,27.3,2.6z M31.7,12.7H16.3c-0.7,0-1.2,0.6-1.2,1.3c0,0.7,0.4,1.6,1.2,1.4h15.4c0.7,0,1.1-0.8,1.1-1.5
		C32.8,13.2,32.3,12.7,31.7,12.7z M40.8,18.1H16.3c-0.7,0-1.2,0.6-1.2,1.3c0,0.7,0.4,1.6,1.2,1.4h24.5c0.7,0,1.1-0.8,1.1-1.5
		C41.9,18.6,41.4,18.1,40.8,18.1z M40.8,23.5H16.3c-0.7,0-1.2,0.6-1.2,1.3c0,0.7,0.4,1.6,1.2,1.4h24.5c0.7,0,1.1-0.8,1.1-1.5
		C41.9,24,41.4,23.6,40.8,23.5z"/>
</g>
</svg>
