<?xml version="1.0" encoding="UTF-8" standalone="no"?>
<svg width="16px" height="16px" viewBox="0 0 16 16" version="1.1" xmlns="http://www.w3.org/2000/svg" xmlns:xlink="http://www.w3.org/1999/xlink">
    <!-- Generator: sketchtool 3.8.3 (29802) - http://www.bohemiancoding.com/sketch -->
    <title>852967F3-0025-4DA5-9845-15145604B328</title>
    <desc>Created with sketchtool.</desc>
    <defs></defs>
    <g id="3---Overview-Design" stroke="none" stroke-width="1" fill-rule="evenodd">
        <g id="aw-assets" transform="translate(-784.000000, -79.000000)">
            <g id="chrome" transform="translate(784.000000, 79.000000)">
                <path d="M10.8749333,5.0624 L15.4376,5.0624 C15.8125333,6 16,6.97946667 16,8 C16,10.1874667 15.2288,12.0624 13.6874667,13.6250667 C12.1456,15.1874667 10.2813333,15.9789333 8.09386667,16 L11.3749333,10.3437333 C11.8538667,9.63573333 12.0938667,8.8544 12.0938667,8 C12.0938667,6.8544 11.6874667,5.87493333 10.8749333,5.0624 L10.8749333,5.0624 Z M5.95306667,10.0469333 C5.38,9.47413333 5.09386667,8.792 5.09386667,8 C5.09386667,7.20853333 5.38,6.5264 5.95306667,5.95306667 C6.52586667,5.38026667 7.208,5.09386667 8,5.09386667 C8.79146667,5.09386667 9.4736,5.38026667 10.0469333,5.95306667 C10.6194667,6.5264 10.9061333,7.20853333 10.9061333,8 C10.9061333,8.792 10.6194667,9.47413333 10.0469333,10.0469333 C9.4736,10.62 8.79146667,10.9061333 8,10.9061333 C7.208,10.9061333 6.52586667,10.62 5.95306667,10.0469333 L5.95306667,10.0469333 Z M4.0312,6.9688 L1.75013333,3 C2.5,2.0624 3.41653333,1.328 4.5,0.7968 C5.5832,0.2656 6.74986667,0 8,0 C9.4376,0 10.7656,0.3544 11.9842667,1.0624 C13.2032,1.77093333 14.1664,2.72933333 14.8749333,3.9376 L8.34373333,3.9376 C8.23946667,3.9168 8.12506667,3.90613333 8,3.90613333 C7.0624,3.90613333 6.22373333,4.1928 5.48426667,4.7656 C4.74453333,5.33893333 4.26026667,6.07306667 4.0312,6.9688 L4.0312,6.9688 Z M9.09386667,11.9376 L6.81253333,15.9061333 C4.87493333,15.6144 3.25493333,14.7242667 1.95306667,13.2344 C0.650933333,11.7450667 0,10 0,8 C0,6.60453333 0.343733333,5.292 1.0312,4.0624 L4.28133333,9.75013333 C4.6144,10.4376 5.1144,11 5.78133333,11.4376 C6.44773333,11.8749333 7.18746667,12.0938667 8,12.0938667 C8.37493333,12.0938667 8.7392,12.0418667 9.09386667,11.9376 L9.09386667,11.9376 Z" id="Fill-1"></path>
            </g>
        </g>
    </g>
</svg>
