<?xml version="1.0" encoding="UTF-8" standalone="no"?>
<svg width="16px" height="16px" viewBox="0 0 16 16" version="1.1" xmlns="http://www.w3.org/2000/svg" xmlns:xlink="http://www.w3.org/1999/xlink">
    <!-- Generator: sketchtool 3.8.3 (29802) - http://www.bohemiancoding.com/sketch -->
    <title>7384EBE5-B95E-4449-AD69-2D3496257BEB</title>
    <desc>Created with sketchtool.</desc>
    <defs></defs>
    <g id="3---Overview-Design" stroke="none" stroke-width="1" fill-rule="evenodd">
        <g id="aw-assets" transform="translate(-724.000000, -79.000000)">
            <path d="M724.50037,86.0888889 C724.96963,82.3951852 727.487778,79.0444444 732.004074,79 C734.730741,79.0520741 736.974444,80.2874074 738.307778,82.6433333 C738.978519,83.872963 739.187778,85.1640741 739.232222,86.5877778 L739.232222,88.2614815 L729.21,88.2614815 C729.255889,92.3948148 735.291481,92.2540741 737.891481,90.4318519 L737.891481,93.7962963 C736.369259,94.7111111 732.917407,95.5259259 730.243333,94.4777778 C727.965556,93.6222222 726.343333,91.2407407 726.354444,88.9481481 C726.28037,85.9740741 727.832222,84.0074074 730.243333,82.8888889 C729.732222,83.5233333 729.343333,84.2222222 729.13963,85.4296296 L734.798889,85.4296448 C734.798889,85.4296448 735.129889,82.047793 731.596296,82.047793 C728.262963,82.1655707 725.859259,84.1037189 724.5,86.0885337 L724.50037,86.0888889 Z" id="msedge"></path>
        </g>
    </g>
</svg>
