<?xml version="1.0" encoding="UTF-8" standalone="no"?>
<svg width="16px" height="16px" viewBox="0 0 16 16" version="1.1" xmlns="http://www.w3.org/2000/svg" xmlns:xlink="http://www.w3.org/1999/xlink">
    <!-- Generator: sketchtool 3.8.3 (29802) - http://www.bohemiancoding.com/sketch -->
    <title>DAD2A6F2-C177-4CAE-B75A-10BBCFF8479B</title>
    <desc>Created with sketchtool.</desc>
    <defs></defs>
    <g id="3---Overview-Design" stroke="none" stroke-width="1" fill-rule="evenodd">
        <g id="aw-assets" transform="translate(-814.000000, -79.000000)">
            <path d="M830,84.9623999 C830,85.1607999 829.984533,85.5458665 829.953333,86.1186665 C829.921866,86.6919998 829.854133,87.2543998 829.750133,87.8061331 C829.6456,88.3586664 829.453333,88.9781331 829.172,89.6655997 C828.8904,90.3530664 828.546933,90.9730664 828.140533,91.5250664 C827.7344,92.0770663 827.177066,92.598133 826.4688,93.0874663 C825.760266,93.5770663 824.958133,93.9263996 824.062666,94.1343996 C823.582933,94.2594663 823.0936,94.3322663 822.5936,94.3530663 C822.5728,94.3530663 822.531466,94.3631996 822.4688,94.3842663 C822.051733,94.4050663 821.6352,94.4050663 821.218666,94.3842663 C818.6352,94.1762663 816.666667,92.905333 815.312533,90.5717331 C814.687467,89.4677331 814.333067,88.4157331 814.250133,87.4157331 C814.187467,87.7074665 814.1456,87.9575998 814.125067,88.1655998 C814.0624,86.9781331 814.156267,86.0093332 814.406133,85.2594665 C814.218667,85.5717332 814.0832,85.8637332 814,86.1343998 C814.166667,85.1967999 814.385333,84.4575999 814.656267,83.9157332 C814.6768,83.7906666 814.801867,83.5615999 815.0312,83.2279999 L815.0312,83.1343999 C814.989333,82.5511999 815.046933,82.0250666 815.2032,81.5562666 C815.359467,81.0874666 815.489333,80.796 815.593867,80.6813333 C815.697867,80.5669333 815.781333,80.4781333 815.843733,80.4157333 C815.864267,80.9157333 816.125067,81.3949333 816.625067,81.8530666 C816.750133,81.8741333 816.864267,81.8842666 816.9688,81.8842666 C817.489333,81.7802666 818.0312,81.7906666 818.593867,81.9157333 C818.926933,81.4992 819.4376,81.2178666 820.125067,81.072 L820.718666,81.0405333 C820.1144,81.3949333 819.749867,81.9053333 819.625067,82.5719999 C819.854133,83.0511999 820.156267,83.2906666 820.5312,83.2906666 L821.218666,83.2906666 C821.5728,83.2906666 821.760266,83.3218666 821.781333,83.3842666 L821.781333,83.4469332 C821.801866,83.4677332 821.801866,83.4991999 821.781333,83.5405332 L821.781333,83.6031999 C821.760266,83.8114666 821.687466,83.9677332 821.5624,84.0717332 C821.5416,84.0717332 821.5312,84.0773332 821.5312,84.0874666 C821.5312,84.0981332 821.520533,84.1031999 821.5,84.1031999 C821.5,84.1239999 821.406133,84.1866666 821.218666,84.2906666 C820.9688,84.4575999 820.770666,84.5927999 820.625066,84.6967999 C820.354133,84.8637332 820.218667,84.9781332 820.218667,85.0405332 L820.218667,85.0717332 L820.187467,85.0717332 C820.249867,85.1967999 820.291466,85.3530665 820.312533,85.5405332 C820.354133,85.7279998 820.364266,85.8429332 820.343733,85.8842665 L820.343733,86.1655998 C820.093867,86.0405332 819.854133,85.9575998 819.625067,85.9157332 C819.333067,86.0405332 819.166667,86.1762665 819.125067,86.3218665 C819.104,86.4053332 819.0832,86.4887998 819.0624,86.5717332 C819.0624,86.9677331 819.343733,87.3325331 819.906133,87.6655998 C820.1352,87.8114665 820.3696,87.8949331 820.609333,87.9157331 C820.8488,87.9367998 821.036266,87.9263998 821.172,87.8842665 C821.3072,87.8426665 821.4736,87.7802665 821.672,87.6967998 C821.8696,87.6138665 822.0104,87.5615998 822.093866,87.5405331 C822.718933,87.3741331 823.229066,87.5199998 823.6248,87.9781331 C823.750133,88.1031998 823.776,88.2231998 823.7032,88.3375998 C823.630133,88.4522664 823.520533,88.4887998 823.374933,88.4469331 C823.312533,88.4677331 823.2704,88.4730664 823.250133,88.4623998 C823.229066,88.4522664 823.182133,88.4623998 823.109333,88.4938664 C823.036,88.5250664 822.984533,88.5458664 822.953333,88.5562664 C822.921866,88.5669331 822.8696,88.5981331 822.797066,88.6501331 C822.723466,88.7023998 822.666666,88.7386664 822.6248,88.7594664 C822.582933,88.7802664 822.515733,88.8271998 822.4216,88.8999998 C822.328,88.9730664 822.250133,89.0199998 822.187466,89.0405331 C821.9376,89.2282664 821.578133,89.3637331 821.109333,89.4469331 C820.640533,89.5301331 820.249867,89.5301331 819.9376,89.4469331 C820.187467,89.6343997 820.385333,89.7701331 820.5312,89.8530664 C820.6768,89.9367997 820.916533,90.0669331 821.249866,90.2437331 C821.5832,90.4210664 821.8696,90.5357331 822.109333,90.5874664 C822.348533,90.6397331 822.650933,90.6655997 823.015733,90.6655997 C823.38,90.6655997 823.713333,90.6031997 824.015733,90.4781331 C824.317333,90.3530664 824.640533,90.1397331 824.984533,89.8375997 C825.328,89.5357331 825.656,89.1554664 825.9688,88.6967998 C826.031466,88.5927998 826.0728,88.5301331 826.0936,88.5093331 C826.1352,88.5093331 826.082933,88.7906664 825.937333,89.3530664 C825.874933,89.6450664 825.854133,89.7906664 825.874933,89.7906664 C826.229066,89.5405331 826.4736,89.0613331 826.609333,88.3530664 C826.744533,87.6450665 826.760266,86.9575998 826.656,86.2906665 C826.906133,86.3949332 827.082933,86.5927998 827.187466,86.8842665 L827.250133,86.9469331 C827.374933,86.5511998 827.447733,86.0357332 827.4688,85.3999999 C827.489066,84.7647999 827.426933,84.2386666 827.281333,83.8218666 C827.551733,83.9053332 827.8016,84.1762666 828.031466,84.6343999 C827.9688,84.3013332 827.874933,83.9938666 827.750133,83.7125332 C827.6248,83.4311999 827.484533,83.1919999 827.328,82.9938666 C827.172,82.7959999 827.0048,82.6085333 826.828,82.4311999 C826.650933,82.2543999 826.4688,82.1085333 826.281333,81.9938666 C826.0936,81.8794666 825.9112,81.7749333 825.7344,81.6813333 C825.557066,81.5874666 825.3904,81.5146666 825.2344,81.4624 C825.077866,81.4106666 824.937333,81.3688 824.812533,81.3376 C824.687466,81.3061333 824.5936,81.2856 824.531466,81.2749333 C824.4688,81.2648 824.447733,81.2594666 824.4688,81.2594666 C824.989066,81.1138666 825.520533,81.0405333 826.062666,81.0405333 C826,80.9365333 825.88,80.8429333 825.7032,80.7594666 C825.525866,80.6762666 825.333066,80.6032 825.1248,80.5405333 C824.916533,80.4781333 824.713333,80.4264 824.515733,80.3842667 C824.317333,80.3429333 824.082933,80.2906667 823.812533,80.228 L823.781333,80.228 L823.843733,80.228 C824.426933,80.0616 825.343733,80.1866667 826.5936,80.6032 C827.051733,80.7490666 827.4688,81.0146666 827.843733,81.4 C828.218933,81.7856 828.453333,82.0719999 828.546933,82.2594666 C828.640533,82.4469333 828.708266,82.6031999 828.750133,82.7279999 L828.750133,82.6031999 C828.7704,82.4991999 828.754933,82.3375999 828.7032,82.1186666 C828.650933,81.8999999 828.5728,81.6656 828.4688,81.4157333 C828.489066,81.4157333 828.520533,81.4312 828.562666,81.4624 C828.604,81.4938666 828.682133,81.6085333 828.797066,81.8061333 C828.911466,82.0045333 829.0416,82.2906666 829.187466,82.6655999 C829.416533,83.2279999 829.614133,84.2386666 829.781333,85.6967998 L829.9688,84.5093332 C829.989066,84.6138665 830,84.7647999 830,84.9623999" id="firefox"></path>
        </g>
    </g>
</svg>
