<?xml version="1.0" encoding="UTF-8" standalone="no"?>
<svg width="16px" height="16px" viewBox="0 0 16 16" version="1.1" xmlns="http://www.w3.org/2000/svg" xmlns:xlink="http://www.w3.org/1999/xlink">
    <!-- Generator: sketchtool 3.8.3 (29802) - http://www.bohemiancoding.com/sketch -->
    <title>63750DF3-0C8E-4090-AD0E-57BA46975D4C</title>
    <desc>Created with sketchtool.</desc>
    <defs></defs>
    <g id="3---Overview-Design" stroke="none" stroke-width="1" fill-rule="evenodd">
        <g id="aw-assets" transform="translate(-904.000000, -79.000000)">
            <path d="M915.447809,80.64667 C916.8511,81.2170815 917.969747,82.1381051 918.803187,83.4100215 C919.307631,82.0502415 919.285455,81.0963743 918.7375,80.5478586 C918.145474,79.9342172 917.048442,79.9670607 915.447809,80.64667 L915.447809,80.64667 Z M915.80965,86.2719037 C915.765578,85.4822544 915.447809,84.8079787 914.855783,84.2487958 C914.263476,83.6896129 913.567024,83.4100215 912.766707,83.4100215 C911.96611,83.4100215 911.269939,83.6896129 910.677912,84.2487958 C910.085886,84.8079787 909.767556,85.4822544 909.724045,86.2719037 L915.80965,86.2719037 L915.80965,86.2719037 Z M909.033207,93.5749667 C907.563668,92.6758388 906.532885,91.4151509 905.940859,89.7914995 C904.953867,91.7216909 904.822493,93.0486274 905.546174,93.7720281 C906.181992,94.4081267 907.344149,94.3421588 909.033207,93.5749667 L909.033207,93.5749667 Z M910.085886,89.726093 C910.37053,90.2305366 910.760162,90.6305545 911.253657,90.9264273 C911.747153,91.2225809 912.295107,91.3705174 912.898362,91.3705174 C913.501617,91.3705174 914.049852,91.2225809 914.543348,90.9264273 C915.036563,90.6305545 915.425633,90.2305366 915.711119,89.726093 L919.62568,89.726093 C919.120956,91.1518409 918.244005,92.3193317 916.993984,93.2294074 C915.743963,94.1394831 914.340111,94.594521 912.783269,94.594521 C911.620832,94.594521 910.524362,94.3421588 909.493579,93.837996 C907.190879,94.9566424 905.534946,95.0108203 904.526339,94.0022138 C904.175446,93.6737781 904,93.1252624 904,92.3577895 C904,91.5903166 904.147936,90.7349802 904.44409,89.7914995 C904.740244,88.8491416 905.233739,87.8127444 905.924296,86.6831501 C906.615134,85.5538365 907.432013,84.5283872 908.375213,83.6073636 C908.923167,83.0372329 909.274341,82.6860593 909.427892,82.5546851 C908.067831,83.2123986 906.839986,84.2322337 905.743516,85.6139094 C906.138201,84.0132765 906.987923,82.6972879 908.292964,81.666505 C909.597443,80.6357222 911.094492,80.1203307 912.783269,80.1203307 C912.958716,80.1203307 913.133882,80.1315593 913.309609,80.1531743 C914.537734,79.60522 915.655819,79.2978379 916.664987,79.2321507 C917.673593,79.1661829 918.386327,79.3306814 918.803187,79.7256464 C919.636347,80.5807022 919.713263,81.9185865 919.033654,83.7387379 C919.669191,84.8573844 919.987521,86.0636137 919.987521,87.3574259 C919.987521,87.6645273 919.976292,87.9387852 919.954677,88.1799187 L909.724045,88.1799187 C909.724045,88.7388209 909.844191,89.2435452 910.085886,89.726093 Z" id="iexplorer"></path>
        </g>
    </g>
</svg>
