<?xml version="1.0" encoding="UTF-8" standalone="no"?>
<svg width="16px" height="16px" viewBox="0 0 16 16" version="1.1" xmlns="http://www.w3.org/2000/svg" xmlns:xlink="http://www.w3.org/1999/xlink">
    <!-- Generator: sketchtool 3.8.3 (29802) - http://www.bohemiancoding.com/sketch -->
    <title>19D452EE-94FB-43BE-8C8D-C4109CA2F1B6</title>
    <desc>Created with sketchtool.</desc>
    <defs></defs>
    <g id="3---Overview-Design" stroke="none" stroke-width="1" fill-rule="evenodd">
        <g id="aw-assets" transform="translate(-694.000000, -79.000000)">
            <g id="16-mask" transform="translate(694.000000, 84.000000)">
                <path d="M12.0307649,6.77996333 C15.2183063,6.66406887 15.9870993,1.7226215 15.9870993,1.7226215 C16.0285847,1.51998555 15.9187249,1.26476379 15.7464425,1.15327614 C15.7464425,1.15327614 14.2809571,0.104259467 12.6000684,0.00692641338 C10.9191797,-0.0904066402 9.27236374,0.859816121 7.99793598,1.49082164 C6.83865966,0.859816121 5.07669231,-0.0903697606 3.39580357,0.00696329298 C1.71491483,0.104296347 0.249429499,1.15331302 0.249429499,1.15331302 C0.0771470281,1.26480067 -0.0327127312,1.52002243 0.00877270999,1.72265838 C0.00877270999,1.72265838 0.777565626,6.66410575 3.96510702,6.78000021 C6.59301758,6.66410589 7.80521682,4.76554979 7.99793598,4.76554979 C8.19065514,4.76554979 9.65429688,6.78000021 12.0307649,6.77996333 Z M6.02347863,4.20085 C2.9339926,5.92043153 1.99968945,2.3545604 1.99968945,2.3545604 C1.99968945,2.3545604 5.0766042,1.20912709 6.02347863,4.20085 Z M9.99844727,4.20242672 C13.0879333,5.92200824 14.0222364,2.35613711 14.0222364,2.35613711 C14.0222364,2.35613711 10.9453217,1.2107038 9.99844727,4.20242672 Z" id="mask"></path>
            </g>
        </g>
    </g>
</svg>
