<?xml version="1.0" encoding="UTF-8" standalone="no"?>
<svg width="16px" height="16px" viewBox="0 0 16 16" version="1.1" xmlns="http://www.w3.org/2000/svg" xmlns:xlink="http://www.w3.org/1999/xlink">
    <!-- Generator: sketchtool 3.8.3 (29802) - http://www.bohemiancoding.com/sketch -->
    <title>14936D13-05D4-4383-B323-03D737E6B209</title>
    <desc>Created with sketchtool.</desc>
    <defs></defs>
    <g id="3---Overview-Design" stroke="none" stroke-width="1" fill-rule="evenodd">
        <g id="aw-assets" transform="translate(-844.000000, -79.000000)">
            <path d="M854.587491,84.5312 C854.525091,83.8856 854.400024,83.2554667 854.212558,82.6405333 C854.025091,82.0264 853.738424,81.5522667 853.353091,81.2186667 C852.967491,80.8856 852.483224,80.7186667 851.900024,80.7186667 C851.316558,80.7186667 850.837624,80.8802667 850.462424,81.2032 C850.087491,81.5264 849.811224,82 849.634424,82.6250667 C849.457358,83.2501333 849.337624,83.8749333 849.274958,84.5 C849.212558,85.1250667 849.181358,85.8856 849.181358,86.7813333 C849.181358,87.3437333 849.191758,87.8176 849.212558,88.2032 C849.233091,88.5888 849.269891,89.0576 849.321891,89.6093333 C849.373624,90.1613333 849.457358,90.6250667 849.572024,91 C849.686158,91.3749333 849.842424,91.7450667 850.040558,92.1093333 C850.238424,92.4741333 850.493891,92.7498667 850.806158,92.9376 C851.118691,93.1250667 851.483224,93.2186667 851.900024,93.2186667 C852.316558,93.2186667 852.686158,93.1250667 853.009358,92.9376 C853.332024,92.7498667 853.592558,92.4741333 853.790691,92.1093333 C853.988291,91.7450667 854.149891,91.3749333 854.274958,91 C854.400024,90.6250667 854.493891,90.1613333 854.556291,89.6093333 C854.618691,89.0576 854.654958,88.5834667 854.665624,88.1874667 C854.675758,87.792 854.681358,87.3232 854.681358,86.7813333 C854.681358,85.9272 854.649891,85.1773333 854.587491,84.5312 L854.587491,84.5312 Z M857.321891,81.1874667 C858.748824,82.6458667 859.462424,84.5624 859.462424,86.9376 C859.462424,89.1045333 858.748824,90.9898667 857.321891,92.5938667 C855.894424,94.1976 854.087491,95 851.900024,95 C849.733091,95 847.941624,94.1976 846.525091,92.5938667 C845.108024,90.9898667 844.400024,89.1045333 844.400024,86.9376 C844.400024,84.5624 845.097891,82.6458667 846.493891,81.1874667 C847.889358,79.7293333 849.691758,79 851.900024,79 C854.087491,79 855.894424,79.7293333 857.321891,81.1874667 L857.321891,81.1874667 Z" id="opera"></path>
        </g>
    </g>
</svg>
