<?xml version="1.0" encoding="UTF-8" standalone="no"?>
<svg width="16px" height="16px" viewBox="0 0 16 16" version="1.1" xmlns="http://www.w3.org/2000/svg" xmlns:xlink="http://www.w3.org/1999/xlink">
    <!-- Generator: sketchtool 3.8.3 (29802) - http://www.bohemiancoding.com/sketch -->
    <title>4FC59240-5DD8-4F7F-8EC0-031CEC9058C3</title>
    <desc>Created with sketchtool.</desc>
    <defs></defs>
    <g id="3---Overview-Design" stroke="none" stroke-width="1" fill-rule="evenodd">
        <g id="aw-assets" transform="translate(-754.000000, -79.000000)">
            <g id="safari" transform="translate(754.000000, 79.000000)">
                <path d="M8,16 C12.418278,16 16,12.418278 16,8 C16,3.581722 12.418278,0 8,0 C3.581722,0 0,3.581722 0,8 C0,12.418278 3.581722,16 8,16 Z M8,15 C11.8659932,15 15,11.8659932 15,8 C15,4.13400675 11.8659932,1 8,1 C4.13400675,1 1,4.13400675 1,8 C1,11.8659932 4.13400675,15 8,15 Z M3.63381076,12.0618031 C3.77429253,11.8481703 6.7748698,7.1577691 6.7748698,7.1577691 C6.7748698,7.1577691 6.98000868,6.83270834 7.2673611,6.64568578 C7.55471355,6.4586632 11.7507682,3.78851129 11.9766189,3.63497396 C12.2024696,3.48143664 12.4910243,3.61878907 12.2571615,3.97611109 C12.0232986,4.33343314 9.48269964,8.25157092 9.41401042,8.35164036 C9.34532117,8.45170981 9.16950521,8.81855876 8.71396702,9.13268203 C8.25842882,9.4468053 4.01437067,12.2261369 3.86096571,12.326649 C3.70756076,12.4271612 3.493329,12.2754359 3.63381076,12.0618031 Z M5.03976562,10.8945313 L7.30760416,7.34622396 L8.54288194,8.5812934 L5.03976562,10.8945313 Z" id="Combined-Shape"></path>
            </g>
        </g>
    </g>
</svg>
