<?xml version="1.0" encoding="UTF-8" standalone="no"?>
<svg width="16px" height="16px" viewBox="0 0 16 16" version="1.1" xmlns="http://www.w3.org/2000/svg" xmlns:xlink="http://www.w3.org/1999/xlink">
    <!-- Generator: sketchtool 3.8.3 (29802) - http://www.bohemiancoding.com/sketch -->
    <title>21F1A386-C9AF-4654-95AC-1D535B37497E</title>
    <desc>Created with sketchtool.</desc>
    <defs></defs>
    <g id="3---Overview-Design" stroke="none" stroke-width="1" fill-rule="evenodd">
        <g id="aw-assets" transform="translate(-874.000000, -79.000000)">
            <path d="M882,95 C886.418278,95 890,91.418278 890,87 C890,82.581722 886.418278,79 882,79 C877.581722,79 874,82.581722 874,87 C874,91.418278 877.581722,95 882,95 Z M878,84.5165445 L878.396769,84.8931347 L881.092691,87.4519501 L881.285136,87.6346072 L881.285136,87.6346072 L881.285136,90.8674795 L881.285136,91.4494509 C881.51832,91.4827433 881.757037,91.5 882,91.5 C882.242963,91.5 882.48168,91.4827433 882.714864,91.4494509 L882.714864,90.8674795 L882.714864,87.6346072 L882.907309,87.4519501 L885.603231,84.8931347 L886,84.5165445 C885.738209,84.1338608 885.417113,83.7911021 885.049071,83.5 L884.59226,83.933579 L882,86.3940041 L879.40774,83.933579 L878.950929,83.5 C878.582887,83.7911021 878.261791,84.1338608 878,84.5165445 L878,84.5165445 Z" id="yandex"></path>
        </g>
    </g>
</svg>
