<?xml version="1.0" encoding="UTF-8" standalone="no"?>
<svg width="16px" height="16px" viewBox="0 0 16 16" version="1.1" xmlns="http://www.w3.org/2000/svg" xmlns:xlink="http://www.w3.org/1999/xlink">
    <!-- Generator: sketchtool 3.8.3 (29802) - http://www.bohemiancoding.com/sketch -->
    <title>602BD802-1B88-42D2-8BC7-7A535D423A82</title>
    <desc>Created with sketchtool.</desc>
    <defs></defs>
    <g id="3---design" stroke="none" stroke-width="1" fill="none" fill-rule="evenodd">
        <g id="aw-assets" transform="translate(-392.000000, -27.000000)">
            <g id="Alert" transform="translate(392.000000, 27.000000)">
                <path d="M8,16 C12.418278,16 16,12.418278 16,8 C16,3.581722 12.418278,0 8,0 C3.581722,0 0,3.581722 0,8 C0,12.418278 3.581722,16 8,16 Z" id="Oval-34" fill="#FF3355"></path>
                <path d="M5.02859548,5.97140452 L10.0285955,10.9714045 C10.288945,11.231754 10.711055,11.231754 10.9714045,10.9714045 C11.231754,10.711055 11.231754,10.288945 10.9714045,10.0285955 L5.97140452,5.02859548 C5.71105499,4.76824595 5.28894501,4.76824595 5.02859548,5.02859548 C4.76824595,5.28894501 4.76824595,5.71105499 5.02859548,5.97140452 L5.02859548,5.97140452 Z" id="Path-6" fill="#FFFFFF"></path>
                <path d="M10.0285955,5.02859548 L5.02859548,10.0285955 C4.76824595,10.288945 4.76824595,10.711055 5.02859548,10.9714045 C5.28894501,11.231754 5.71105499,11.231754 5.97140452,10.9714045 L10.9714045,5.97140452 C11.231754,5.71105499 11.231754,5.28894501 10.9714045,5.02859548 C10.711055,4.76824595 10.288945,4.76824595 10.0285955,5.02859548 L10.0285955,5.02859548 Z" id="Path-6-Copy" fill="#FFFFFF"></path>
            </g>
        </g>
    </g>
</svg>