<?xml version="1.0" encoding="UTF-8" standalone="no"?>
<svg width="24px" height="24px" viewBox="0 0 24 24" version="1.1" xmlns="http://www.w3.org/2000/svg" xmlns:xlink="http://www.w3.org/1999/xlink">
    <!-- Generator: sketchtool 3.8.3 (29802) - http://www.bohemiancoding.com/sketch -->
    <title>EC7FE492-2287-4B9D-B49D-9565070E3038</title>
    <desc>Created with sketchtool.</desc>
    <defs></defs>
    <g id="3---design" stroke="none" stroke-width="1" fill-rule="evenodd">
        <g id="aw-assets" transform="translate(-446.000000, -24.000000)">
            <g id="Blocked" transform="translate(446.000000, 24.000000)">
                <path d="M2.49999995,12.0006357 L2.49999995,12.0006357 L2.49999993,11.9995614 C2.50125276,17.2473875 6.75377456,21.5 12.0003165,21.5 C17.2471151,21.5 21.4994989,17.2475255 21.5,12.000397 C21.4994989,6.75278995 17.2473783,2.50050109 12.0005552,2.49999999 C6.75348928,2.50050109 2.50100215,6.75292403 2.49999995,12.0006357 L2.49999995,12.0006357 Z M0,12.0001582 C0.00126582278,5.37204794 5.37278481,0.000632936429 12.0003165,0 C18.6281646,0.000632936429 23.9993671,5.37204794 24,12.0001582 C23.9993671,18.6282685 18.6278481,24 12.0003165,24 C5.37278481,24 0.00158227848,18.6279521 0,12.0001582 L0,12.0001582 Z" id="Shape-Copy"></path>
                <polygon id="Shape" points="3 18.2050497 18.2056842 3 20 4.79463303 4.79431579 20"></polygon>
            </g>
        </g>
    </g>
</svg>