<?xml version="1.0" encoding="utf-8"?>
<svg version="1.1" xmlns="http://www.w3.org/2000/svg" xmlns:xlink="http://www.w3.org/1999/xlink" x="0px" y="0px"
	 viewBox="0 0 32 32" style="enable-background:new 0 0 32 32;" xml:space="preserve">
<path d="M16,0C9.7,0,4.8,5,4.8,11.3v9.8c0,1,0.6,2.5,1.3,3.1l3.4,3.1c0.8,0.7,1.6,2,1.8,2.9c0.2,0.9,1.3,1.7,2.3,1.7h4.7
	c1,0,2.1-0.8,2.3-1.7c0.2-0.9,1.1-2.2,1.9-2.9l3.2-3.1c0.8-0.7,1.3-2.1,1.3-3.1v-9.8C27.2,5,22.3,0,16,0z M10.6,23c-1.8,0-3-1.6-3-3
	c0-1.6,1.5-2.6,3.2-2.6s3.2,1,3.2,2.6C14.1,21.5,12.4,23,10.6,23z M16,27.3c-0.9,0-1.5-0.4-1.5-1.5c0-0.9,0.9-2.8,1.5-2.8
	c0.4,0,1.5,1.9,1.5,2.8C17.5,26.9,16.9,27.3,16,27.3z M21.4,23c-1.8,0-3.6-1.6-3.6-3c0-1.6,1.5-2.6,3.2-2.6c1.8,0,3.2,1,3.2,2.6
	C24.5,21.5,23.3,23,21.4,23z"/>
</svg>
