<?xml version="1.0" encoding="utf-8"?>
<svg version="1.1" xmlns="http://www.w3.org/2000/svg" xmlns:xlink="http://www.w3.org/1999/xlink" x="0px" y="0px"
	 viewBox="0 0 22.5 22.5" style="enable-background:new 0 0 22.5 22.5;" xml:space="preserve">
<g>
	<path class="st0" d="M22.5,3.2c0-1.8-1.4-3.2-3.2-3.2H3.2C1.4,0,0,1.4,0,3.2v16.1c0,1.8,1.4,3.2,3.2,3.2l0,0h16.1
		c1.8,0,3.2-1.4,3.2-3.2l0,0V3.2z M21,19.3c0,0.9-0.8,1.7-1.7,1.7H3.2c-1,0-1.7-0.8-1.7-1.7V3.2c0-0.9,0.8-1.7,1.7-1.7h16.1
		c1,0,1.7,0.8,1.7,1.7V19.3z"/>
	<path class="st0" d="M16.7,10.5H5.8c-0.4,0-0.7,0.3-0.7,0.7c0,0.4,0.3,0.7,0.7,0.7h10.9c0.4,0,0.7-0.3,0.7-0.7
		C17.5,10.8,17.2,10.5,16.7,10.5z"/>
	<path class="st0" d="M16.8,6.5h-11C5.3,6.5,5,6.8,5,7.3S5.3,8,5.7,8h11c0.4,0,0.7-0.3,0.7-0.8S17.2,6.5,16.8,6.5z"/>
	<path class="st0" d="M16.8,14.5h-11c-0.4,0-0.7,0.3-0.7,0.8C5,15.7,5.3,16,5.7,16h11c0.4,0,0.7-0.3,0.7-0.8
		C17.5,14.8,17.2,14.5,16.8,14.5z"/>
</g>
</svg>
