<?xml version="1.0" encoding="utf-8"?>
<svg version="1.1" xmlns="http://www.w3.org/2000/svg" xmlns:xlink="http://www.w3.org/1999/xlink" x="0px" y="0px"
	 viewBox="0 0 22.5 22.5" style="enable-background:new 0 0 22.5 22.5;" xml:space="preserve">
	<path class="st0" d="M22.5,3.2c0-1.8-1.4-3.2-3.2-3.2H3.2C1.4,0,0,1.4,0,3.2v16.1c0,1.8,1.4,3.2,3.2,3.2l0,0h16.1
		c1.8,0,3.2-1.4,3.2-3.2l0,0V3.2z M21,19.3c0,0.9-0.8,1.7-1.7,1.7H3.2c-1,0-1.7-0.8-1.7-1.7V3.2c0-0.9,0.8-1.7,1.7-1.7h16.1
		c1,0,1.7,0.8,1.7,1.7V19.3z"/>
	<path class="st1" d="M4.5,4.5H11c0.6,0,1,0.4,1,1V8c0,0.6-0.4,1-1,1H4.5c-0.6,0-1-0.4-1-1V5.5C3.5,4.9,3.9,4.5,4.5,4.5z"/>
	<path class="st1" d="M13.5,4.5H18c0.6,0,1,0.4,1,1V8c0,0.6-0.4,1-1,1h-4.5c-0.6,0-1-0.4-1-1V5.5C12.5,4.9,12.9,4.5,13.5,4.5z"/>
	<path class="st1" d="M4.5,10H8c0.6,0,1,0.4,1,1v2.5c0,0.6-0.4,1-1,1H4.5c-0.6,0-1-0.4-1-1V11C3.5,10.4,3.9,10,4.5,10z"/>
	<path class="st1" d="M10.5,10h3c0.6,0,1,0.4,1,1v2.5c0,0.6-0.4,1-1,1h-3c-0.6,0-1-0.4-1-1V11C9.5,10.4,9.9,10,10.5,10z"/>
	<path class="st1" d="M16,10h2c0.6,0,1,0.4,1,1v2.5c0,0.6-0.4,1-1,1h-2c-0.6,0-1-0.4-1-1V11C15,10.4,15.4,10,16,10z"/>
	<path class="st1" d="M4.5,15.5H10c0.6,0,1,0.4,1,1V17c0,0.6-0.4,1-1,1H4.5c-0.6,0-1-0.4-1-1v-0.5C3.5,15.9,3.9,15.5,4.5,15.5z"/>
	<path class="st1" d="M12.5,15.5H13c0.6,0,1,0.4,1,1V17c0,0.6-0.4,1-1,1h-0.5c-0.6,0-1-0.4-1-1v-0.5C11.5,15.9,11.9,15.5,12.5,15.5z
		"/>
	<path class="st1" d="M15.5,15.5H16c0.6,0,1,0.4,1,1V17c0,0.6-0.4,1-1,1h-0.5c-0.6,0-1-0.4-1-1v-0.5C14.5,15.9,14.9,15.5,15.5,15.5z
		"/>
	<path class="st1" d="M18.2,15.5c0.4,0,0.8,0.3,0.8,0.8v1c0,0.4-0.3,0.8-0.8,0.8s-0.8-0.3-0.8-0.8v-1C17.5,15.8,17.8,15.5,18.2,15.5
		z"/>
</svg>
