
<svg width="23px" height="23px" viewBox="0 0 23 23" version="1.1" xmlns="http://www.w3.org/2000/svg" xmlns:xlink="http://www.w3.org/1999/xlink">
    <!-- Generator: Sketch 49 (51002) - http://www.bohemiancoding.com/sketch -->
    <desc>Created with Sketch.</desc>
    <defs></defs>
    <g id="Page-1">
        <g id="display-mode-list">
            <path d="M22.5,3.2 C22.5,1.4 21.1,0 19.3,0 L3.2,0 C1.4,0 0,1.4 0,3.2 L0,19.3 C0,21.1 1.4,22.5 3.2,22.5 L19.3,22.5 C21.1,22.5 22.5,21.1 22.5,19.3 L22.5,3.2 Z M21,19.3 C21,20.2 20.2,21 19.3,21 L3.2,21 C2.2,21 1.5,20.2 1.5,19.3 L1.5,3.2 C1.5,2.3 2.3,1.5 3.2,1.5 L19.3,1.5 C20.3,1.5 21,2.3 21,3.2 L21,19.3 Z" id="Shape"></path>
            <path d="M19,5.18880043 C18.4579834,4.89529266 17.5781654,2.54985918 15.7443848,3.79890669 C14.1794341,4.86484538 13.8938067,7.57486082 11.9904785,7.42224983 C10.0871503,7.26963884 9.46011922,4.4605136 7.921875,4.4605136 C6.18438406,4.4605136 5.02564103,5.41464032 4,7.42224983 L4,9.1852232 C6.30999654,9.1852232 7.89421982,9.1852232 8.75266985,9.1852232 C10.1508539,9.1852232 12.8264381,9.1852232 13.8876399,9.1852232 C14.5951077,9.1852232 16.2992278,9.1852232 19,9.1852232 L19,5.18880043 Z" id="Shape"></path>
            <path d="M19,13.1363295 C18.4579834,12.7791287 16.9628906,16.9293982 12.5322266,16.9293982 C10.0585938,16.9293982 8.99332235,12.25 7.45507813,12.25 C5.71758719,12.25 5.02564103,13.411178 4,15.8544508 L4,18 C6.30999654,18 7.89421982,18 8.75266985,18 C10.1508539,18 12.8264381,18 13.8876399,18 C14.5951077,18 16.2992278,18 19,18 L19,13.1363295 Z" id="Shape"></path>
        </g>
    </g>
</svg>
