<?xml version="1.0" encoding="utf-8"?>
<svg version="1.1" xmlns="http://www.w3.org/2000/svg" xmlns:xlink="http://www.w3.org/1999/xlink" x="0px" y="0px"
	 viewBox="0 0 40 20.8" style="enable-background:new 0 0 40 20.8;" xml:space="preserve">
<style type="text/css">
	#end-of-logs-svg .st0{fill:#46396A;}
</style>
<g id="end-of-logs-svg">
  <rect x="31.6" y="6.5" transform="matrix(0.226 -0.9741 0.9741 0.226 17.8371 38.7514)" class="st0" width="3.3" height="3.3"/>
  <path class="st0" d="M39.4,3.8L23.2,0c-0.4-0.1-0.8,0.1-0.9,0.5l-2.2,9.7L20,10.7l-0.1-0.5l-2.2-9.7c-0.1-0.4-0.5-0.6-0.8-0.6
  	c0,0,0,0,0,0L0.6,3.8C0.2,3.9-0.1,4.3,0,4.7l2.2,9.7c0.1,0.4,0.5,0.6,0.9,0.5l15.5-3.6l0.6,2.6l-1.4,6c-0.1,0.4,0.1,0.8,0.5,0.9
  	c0.4,0.1,0.8-0.1,0.9-0.5c0,0,0,0,0,0l0.7-3.2l0.7,3.2c0.1,0.4,0.5,0.6,0.9,0.5c0.4-0.1,0.6-0.5,0.5-0.8l-1.4-6l0.6-2.6l15.5,3.6
  	c0.4,0.1,0.8-0.2,0.9-0.5c0,0,0,0,0,0L40,4.7C40.1,4.3,39.8,3.9,39.4,3.8L39.4,3.8z M7.4,3.7L8,6.1L4.7,6.9L4.1,4.4L7.4,3.7z
  	 M15.8,10.5l-3.2,0.7L12,8.6L8.7,9.4l0.6,2.5l-3.2,0.8l-0.6-2.6l-2.6,0.6L2.2,7.6L4.7,7l0.7,3.2l3.3-0.8L8,6.2l3.2-0.7l0.7,3.2
  	l3.3-0.8l-0.8-3.3l-3.2,0.7l-0.6-2.5l3.2-0.7l0.6,2.6L17,4.1l0.7,3.2l-2.6,0.6L15.8,10.5z M37.1,10.7l-2.6-0.6L34,12.7l-3.3-0.8
  	l0.6-2.5L28,8.6l-0.6,2.6l-3.2-0.7l0.6-2.6l-2.6-0.6L23,4.1l2.6,0.6l0.6-2.6l3.2,0.7l-0.6,2.5l-3.2-0.7l-0.8,3.3l3.3,0.8l0.7-3.2
  	l3.2,0.7l0.6-2.6l3.3,0.8L35.3,7l2.6,0.6L37.1,10.7z"/>
</g>
</svg>
