<?xml version="1.0" encoding="utf-8"?>
<svg version="1.1" xmlns="http://www.w3.org/2000/svg" xmlns:xlink="http://www.w3.org/1999/xlink" x="0px" y="0px"
	 viewBox="0 0 32 32" style="enable-background:new 0 0 32 32;" xml:space="preserve">
<path d="M27.8,26.6L27.8,26.6c0,0.5-0.9,1.5-1.5,2.2c-1.5,1.6-3.9,2.2-4,2.3l0,0c-0.2,0-3.9,0.9-6.4,0.9s-6.4-0.9-6.6-0.9l0,0
	c-0.1,0-2.3-0.6-3.8-2.3c-0.5-0.6-1.5-1.5-1.5-2.2l0,0c-2.8-3.2-3.3-6.7-2.8-9.1c0.5-2.5,1.9-4.3,2-4.4l0,0C3.9,11,4.8,9.3,6.1,8
	c3-3.2,7.1-3.8,8.9-3.8V0.9C15,0.5,15.3,0,15.9,0c0.6,0,0.9,0.3,0.9,0.9v3.3c1.7,0,6,0.6,9.1,3.8c1.3,1.4,2.2,3.1,2.7,5.1l0,0
	c0,0.1,1.6,1.8,2,4.4C31.2,19.8,30.7,23.3,27.8,26.6z M18.1,22.5c0.2,0.2,0.6,0.5,0.9,0.7c0.6,0.3,1.3,0.6,1.9,0.6c2.2,0,4-1.8,4-4
	s-1.8-4-4-4s-4,1.8-4,4C17.1,21,17.6,21.9,18.1,22.5L18.1,22.5z M11.1,23.8c2.2,0,4-1.8,4-4c0-1.1-0.5-2.2-1.3-2.8h0.1
	c-0.5-0.6-1.1-0.9-1.8-1l0,0c-0.3-0.1-0.7-0.1-1-0.1c-2.2,0-4,1.8-4,4S8.9,23.8,11.1,23.8z M25,9c-3-3.2-7.2-3.4-8.4-3.4
	c-0.2,0-0.3,0-0.3,0l0,0l0,0c0,0-0.1,0-0.3,0c-1.3,0-5.6,0.2-8.4,3.4c-2.2,2.4-3.2,5.8-3,10.2l0,0l0,0c-0.1,5.4,1.7,7.9,3.2,9.1
	c-1-1-1.8-4.2-1.8-6.4c0-6.5,0.2-9.6,4.2-10.8c3.3-1,5.5-1,6.1-0.9c0.6,0,2.7-0.1,6.1,0.9c4,1.3,4.2,4.4,4.2,10.8
	c0,2.2-0.9,5.4-1.7,6.4c0.2-0.2,0.5-0.5,0.8-0.7c1.7-1.8,2.5-4.8,2.5-8.4l0,0l0,0C28.2,14.8,27.1,11.3,25,9z M11.4,17.7
	c1.4,0,2.5,1.1,2.5,2.4c0,1.3-1.1,2.4-2.5,2.4S8.9,21.3,8.9,20C8.9,18.8,10.1,17.7,11.4,17.7z M20.8,17.7c1.4,0,2.5,1.1,2.5,2.4
	c0,1.3-1.1,2.4-2.5,2.4c-1.4,0-2.5-1.1-2.5-2.4C18.3,18.8,19.4,17.7,20.8,17.7z"/>
</svg>
