<?xml version="1.0" encoding="utf-8"?>
<!-- Generator: Adobe Illustrator 19.2.1, SVG Export Plug-In . SVG Version: 6.00 Build 0)  -->
<svg version="1.1" id="Ebene_1" xmlns="http://www.w3.org/2000/svg" xmlns:xlink="http://www.w3.org/1999/xlink" x="0px" y="0px"
	 viewBox="0 0 32 31.8" style="enable-background:new 0 0 32 31.8;" xml:space="preserve">
<g id="trash-bottom">
	<path d="M10.6,9.4C10,9.5,9.5,10,9.5,10.7l1.1,13.7c0.1,0.6,0.6,1.1,1.2,1.1c0.1,0,0.1,0,0.1,0c0.7-0.1,1.1-0.6,1.1-1.2l-1.1-13.7
		C11.8,9.8,11.3,9.3,10.6,9.4z"/>
	<path d="M21.3,9.4c-0.7-0.1-1.2,0.4-1.3,1.1L19,24.2c-0.1,0.7,0.4,1.2,1.1,1.2c0.1,0,0.1,0,0.1,0c0.6,0,1.1-0.5,1.2-1.1l1.1-13.7
		C22.5,10,22,9.4,21.3,9.4z"/>
	<path d="M15.9,9.4c-0.7,0-1.2,0.5-1.2,1.2v13.7c0,0.7,0.5,1.2,1.2,1.2s1.2-0.5,1.2-1.2V10.6C17.1,9.9,16.6,9.4,15.9,9.4z"/>
	<path d="M27.4,4.2l-22.9,0c-0.7,0-1.2,0.5-1.2,1.2c0,0,0,0,0,0h0l0,0.2c0,0,0,0,0,0L6,26.8c0.2,2.8,2.6,5,5.4,5h9.1
		c2.8,0,5.2-2.2,5.4-4.9l2.7-21.5C28.7,4.8,28,4.2,27.4,4.2z M23.5,26.7c-0.1,1.5-1.5,2.8-3,2.8h-9.1c-1.5,0-2.9-1.2-3-2.8l-2.5-20
		h0.8l19.4,0L23.5,26.7z"/>
</g>
<path id="trash-top" d="M30.7,4.2h-7.8v-2c0-1.2-1-2.3-2.3-2.3h-9.5C10,0,8.9,1,8.9,2.3v2H1.2C0.5,4.2,0,4.7,0,5.4
	C0,6,0.5,6.6,1.2,6.6h29.6C31.5,6.6,32,6,32,5.4C32,4.7,31.3,4.2,30.7,4.2z M20.6,4.2h-9.2V2.4h9.2V4.2z"/>
</svg>
