<?xml version="1.0" encoding="UTF-8" standalone="no"?>
<svg width="32px" height="32px" viewBox="0 0 32 32" version="1.1" xmlns="http://www.w3.org/2000/svg" xmlns:xlink="http://www.w3.org/1999/xlink">
    <!-- Generator: sketchtool 3.8.3 (29802) - http://www.bohemiancoding.com/sketch -->
    <title>6B3D7130-F83C-41F0-98DF-B72A4FE5072A</title>
    <desc>Created with sketchtool.</desc>
    <defs></defs>
    <g id="3---Overview-Design" stroke="none" stroke-width="1" fill="none" fill-rule="evenodd">
        <g id="aw-assets" transform="translate(-334.000000, -19.000000)" fill="#FFFFFF">
            <path d="M361.994463,27.3079674 C361.111167,27.7008767 360.161886,27.9648158 359.166116,28.0847881 C360.182881,27.474429 360.964201,26.5086518 361.331616,25.3599169 C360.380835,25.9237868 359.326578,26.3331923 358.206337,26.5551411 C357.308044,25.5983619 356.028839,25 354.613166,25 C351.894294,25 349.689802,27.2044913 349.689802,29.9233638 C349.689802,30.3072752 349.733292,30.685188 349.817273,31.045105 C345.726217,30.8396524 342.098554,28.8796047 339.670614,25.9027917 C339.247712,26.6286242 339.003268,27.474429 339.003268,28.375721 C339.003268,30.0853265 339.873068,31.590979 341.194263,32.4742752 C340.387449,32.4487811 339.627125,32.2253326 338.964277,31.8564177 L338.964277,31.9194032 C338.964277,34.3053526 340.660386,36.2938937 342.912866,36.7467892 C342.498962,36.8592632 342.064062,36.9177498 341.615666,36.9177498 C341.299239,36.9177498 340.99031,36.8892563 340.688879,36.8307698 C341.315735,38.7863185 343.133315,40.2109898 345.288318,40.2484811 C343.602707,41.5696762 341.480697,42.3569945 339.174229,42.3569945 C338.776821,42.3569945 338.385411,42.3344997 338,42.2865108 C340.178997,43.6841883 342.7659,44.5 345.546259,44.5 C354.601169,44.5 359.551527,36.9987311 359.551527,30.4932323 C359.551527,30.2817811 359.547028,30.0673306 359.53803,29.8558794 C360.500808,29.1615396 361.334615,28.2947397 361.994463,27.3079674" id="twitter"></path>
        </g>
    </g>
</svg>