<svg xmlns="http://www.w3.org/2000/svg" viewBox="0 0 32 32">
  <path d="M16 0C7.2 0 0 7.2 0 16s7.2 16 16 16 16-7.2 16-16S24.8 0 16 0zm1 24.2c-.3.3-.6.4-1 .4s-.7-.1-1-.4c-.3-.3-.4-.6-.4-1.1 0-.5.1-.8.4-1.1.3-.3.6-.4 1-.4s.7.1 1 .4c.3.3.4.7.4 1.1 0 .5-.2.8-.4 1.1zm3-11c-.2.4-.4.8-.7 1.2-.3.4-.6.8-.9 1.1l-.9 1.2c-.3.4-.5.8-.6 1.3-.1.5-.2 1-.1 1.5H15c-.1-.6-.1-1.2.1-1.7.1-.5.3-1 .6-1.4.2-.4.5-.8.8-1.2.3-.4.6-.7.9-1.1.3-.4.5-.7.7-1.1.2-.4.3-.8.3-1.2 0-.6-.2-1.2-.6-1.6-.4-.5-1-.7-1.7-.7-.5 0-1 .1-1.5.4-.5.2-.9.6-1.3 1l-1.1-1c.5-.6 1.1-1.1 1.8-1.4.5-.4 1.3-.5 2.1-.5 1.2 0 2.2.3 3 1 .7.7 1.1 1.6 1.1 2.8 0 .5-.1 1-.2 1.4z"/>
</svg>
