<?xml version="1.0" encoding="UTF-8" standalone="no"?>
<svg width="33px" height="32px" viewBox="0 0 33 32" version="1.1" xmlns="http://www.w3.org/2000/svg" xmlns:xlink="http://www.w3.org/1999/xlink">
    <!-- Generator: sketchtool 3.8.2 (29753) - http://www.bohemiancoding.com/sketch -->
    <title>E5030ACA-68E1-43C3-B9EE-E149672E9A72</title>
    <desc>Created with sketchtool.</desc>
    <defs></defs>
    <g id="3---design" stroke="none" stroke-width="1" fill="none" fill-rule="evenodd">
        <g id="aw-assets" transform="translate(-258.000000, -83.000000)" fill="#FFFFFF">
            <path d="M258.137993,115 C258.137993,115 258.445013,114.184582 258.727473,113.7653 C261.822736,109.17105 268.061307,108.735847 268.061307,108.735847 C268.937717,107.818999 269.339689,106.822878 269.523459,106.01413 C267.615695,104.471903 266.842179,102.272669 266.545505,100.459792 C266.132723,100.762472 265.44849,100.595518 264.694192,97.6980373 C263.780947,94.1911935 265.046118,94.1491546 265.766384,94.3649542 C265.725947,94.3277198 265.683507,94.2952898 265.639066,94.268465 C265.639066,94.268465 263.644021,87.6095055 268.44366,84.6815971 C268.44366,84.6815971 267.60048,83.998165 267.66534,83.0136543 C267.66534,83.0136543 272.321247,83.5421431 274.577334,83.0757117 C276.833821,82.6092802 279.257663,84.3821201 279.639216,86.0848952 C279.639216,86.0848952 284.440457,85.71175 282.393364,94.2952898 C283.117634,94.1715754 284.156194,94.4326168 283.305808,97.6984377 C282.513475,100.742053 281.798414,100.772882 281.394039,100.411347 C281.107775,102.206608 280.355078,104.392229 278.492155,105.944866 C278.66992,106.766025 279.071891,107.793776 279.952706,108.737449 C280.2706,108.762672 286.25974,109.294364 289.272127,113.7661 C289.559342,114.191662 290.137993,115 290.137993,115 L258.137993,115 Z" id="user-boy"></path>
        </g>
    </g>
</svg>