<?xml version="1.0" encoding="UTF-8" standalone="no"?>
<svg width="16px" height="16px" viewBox="0 0 16 16" version="1.1" xmlns="http://www.w3.org/2000/svg" xmlns:xlink="http://www.w3.org/1999/xlink">
    <!-- Generator: sketchtool 3.7.2 (28276) - http://www.bohemiancoding.com/sketch -->
    <title>F6C42E40-4B52-425D-ACF3-E9C74AD47F73</title>
    <desc>Created with sketchtool.</desc>
    <defs></defs>
    <g id="3---design" stroke="none" stroke-width="1" fill="none" fill-rule="evenodd">
        <g id="aw-assets" transform="translate(-64.000000, -28.000000)" fill="#FFFFFF">
            <path d="M72,44 C76.418278,44 80,40.418278 80,36 C80,31.581722 76.418278,28 72,28 C67.581722,28 64,31.581722 64,36 C64,40.418278 67.581722,44 72,44 Z M68.5040595,37.2848438 L70.6469167,39.1737327 C70.97448,39.4624737 71.4784839,39.4114384 71.7415159,39.0628939 L75.5986587,33.9517828 C75.8481715,33.6211527 75.7824129,33.150854 75.4517828,32.9013413 C75.1211527,32.6518285 74.650854,32.7175871 74.4013413,33.0482172 L70.5441984,38.1593283 L71.6387976,38.0484895 L69.4959405,36.1596007 C69.1852132,35.8857003 68.7112788,35.9155544 68.4373784,36.2262817 C68.1634781,36.537009 68.1933322,37.0109434 68.5040595,37.2848438 Z" id="verified-white"></path>
        </g>
    </g>
</svg>