<?xml version="1.0" encoding="UTF-8" standalone="no"?>
<svg width="32px" height="32px" viewBox="0 0 32 32" version="1.1" xmlns="http://www.w3.org/2000/svg" xmlns:xlink="http://www.w3.org/1999/xlink">
    <!-- Generator: sketchtool 3.8.2 (29753) - http://www.bohemiancoding.com/sketch -->
    <title>B9CB1D94-96B1-4958-9F0B-A16B81310E5F</title>
    <desc>Created with sketchtool.</desc>
    <defs></defs>
    <g id="3---design" stroke="none" stroke-width="1" fill="none" fill-rule="evenodd">
        <g id="aw-assets" transform="translate(-310.000000, -19.000000)" fill="#FFFFFF">
            <g id="Yandex" transform="translate(319.000000, 23.000000)">
                <path d="M12.8102718,0 L10.7832059,0 C10.6037089,0 10.4916131,0.0880958084 10.4657448,0.215856287 C10.4400203,0.344047904 7.42593645,9.53417964 7.20691848,10.2997365 C7.05156519,10.8423952 6.54512207,12.7556407 6.42368495,13.2150898 L5.37544543,10.3531976 C5.12064303,9.56550898 2.67939752,2.7451976 2.60782866,2.47286228 C2.5683077,2.32311377 2.49946938,2.13686228 2.23705022,2.13686228 L0.258128062,2.13686228 C0.064547224,2.13686228 -0.0448180455,2.34912575 0.017553212,2.48076647 C0.0674214755,2.58610778 3.64198435,12.0957126 5.0860083,15.728479 L5.0860083,23.716024 C5.0860083,23.8617485 5.14435561,23.9491257 5.28964902,23.9491257 L7.16380471,23.9491257 C7.28006818,23.9491257 7.36730172,23.8617485 7.36730172,23.716024 L7.36730172,15.7915689 C8.57103824,12.4294132 12.9682119,0.469796407 13.0160682,0.336 C13.0741281,0.172311377 13.0570263,0 12.8102718,0" id="Fill-7"></path>
            </g>
        </g>
    </g>
</svg>