<svg xmlns="http://www.w3.org/2000/svg" width="30" height="38" viewBox="0 0 30 38">
  <defs>
    <style>
      .cls-1 {
        fill: #fff;
        fill-rule: evenodd;
      }
    </style>
  </defs>
  <path id="Form_125" data-name="Form 125" class="cls-1" d="M5.864,27.4C5.856,26.45,4.735,26.04,4,26H3V3H16a1.309,1.309,0,0,0,1.368-1.449A1.562,1.562,0,0,0,15.789,0H3.154A3.125,3.125,0,0,0,0,3.094V26a2.915,2.915,0,0,0,3,3H5C5.878,29,5.871,28.258,5.864,27.4ZM27,5H11A2.913,2.913,0,0,0,8,8V33s0,0.82,0,2a3.054,3.054,0,0,0,3.049,3H26.844A3.135,3.135,0,0,0,30,34.89V7.538C30,5.819,28.743,5,27,5ZM11,35V8s16-.007,16,0-0.006,27,0,27H11Z"/>
</svg>
